<svg width="60" height="60" viewBox="0 0 60 60" fill="none" xmlns="http://www.w3.org/2000/svg">
<rect width="60" height="60" fill="white"/>
<path d="M31.1911 17.0887C30.8993 17.1638 30.6637 17.3004 30.4106 17.5461C30.0415 17.9011 30.0133 17.9796 29.6442 19.7137C29.4719 20.5397 29.0993 22.2976 28.818 23.622C28.5368 24.9464 28.0797 27.1105 27.7985 28.4349C27.5172 29.7593 27.1692 31.4011 27.025 32.0872C26.7825 33.2341 26.3571 35.2412 25.3516 39.9892C25.1407 40.9825 24.9508 41.9008 24.9297 42.027C24.8418 42.5732 25.0914 43.2115 25.5344 43.5631C26.3325 44.198 27.4821 44.0751 28.0973 43.2832C28.368 42.9384 28.2977 43.2047 29.0782 39.5182C29.2891 38.5112 29.6407 36.8626 29.8516 35.859C30.0661 34.8555 30.4141 33.2102 30.625 32.2067C30.8395 31.2032 31.1875 29.5579 31.3985 28.5544C31.6129 27.5508 31.961 25.9056 32.1719 24.902C32.6922 22.4546 33.3215 19.4645 33.3848 19.1607C33.5219 18.5155 33.3637 17.9831 32.9137 17.5427C32.6641 17.297 32.4286 17.1638 32.1122 17.0853C31.8625 17.0205 31.4407 17.0239 31.1911 17.0887Z" fill="black"/>
<path d="M17.7227 19.7649C17.4977 19.8024 17.234 19.9082 17.0512 20.0277C16.9668 20.0857 14.7415 22.2191 12.1118 24.7689C6.90161 29.8173 7.17935 29.5272 7.05278 30.0426C6.98599 30.3225 6.98599 30.5853 7.05278 30.8413C7.18638 31.3397 6.90864 31.0496 12.0766 36.0775C15.2196 39.1359 16.9317 40.7778 17.0723 40.8631C17.3958 41.0713 17.6911 41.1464 18.12 41.1225C18.5348 41.102 18.7668 41.0235 19.0903 40.7982C19.6563 40.3955 19.934 39.6206 19.7407 38.9789C19.593 38.4942 19.7618 38.6717 15.3778 34.4083L11.2891 30.4317L15.3497 26.4893C17.5856 24.3217 19.4594 22.4785 19.5157 22.3966C19.7512 22.0552 19.8567 21.5091 19.7653 21.0995C19.5684 20.2086 18.6508 19.6113 17.7227 19.7649Z" fill="black"/>
<path d="M40.5884 19.7785C39.9239 19.9253 39.3755 20.4612 39.2348 21.0995C39.1434 21.5091 39.2489 22.0552 39.4844 22.3966C39.5407 22.4785 41.4145 24.3217 43.6505 26.4893L47.711 30.4317L43.6223 34.4083C39.2384 38.6717 39.4071 38.4942 39.2594 38.9789C39.0661 39.6206 39.3438 40.3955 39.9098 40.7982C40.2333 41.0235 40.4653 41.102 40.8802 41.1225C41.3091 41.1464 41.6044 41.0713 41.9278 40.8631C42.0684 40.7778 43.7805 39.1359 46.9235 36.0775C52.0915 31.0496 51.8138 31.3397 51.9473 30.8413C52.0141 30.5853 52.0141 30.3225 51.9473 30.0426C51.8208 29.5272 52.0985 29.8173 46.8884 24.7689C44.2587 22.2191 42.0262 20.0789 41.9278 20.0174C41.5622 19.7819 41.0173 19.6829 40.5884 19.7785Z" fill="black"/>
</svg>
