<svg width="68" height="76" viewBox="0 0 68 76" fill="none" xmlns="http://www.w3.org/2000/svg">
<path d="M55.7875 9.7625C55.4875 9.7625 55.1875 9.6875 54.925 9.5375C47.725 5.825 41.5 4.25 34 4.25C26.6125 4.25 19.5625 6.0125 13.15 9.5375C12.25 10.025 11.125 9.6875 10.6 8.7875C10.1125 7.8875 10.45 6.725 11.35 6.2375C18.325 2.375 25.975 0.5 34 0.5C42.025 0.5 49 2.2625 56.65 6.125C57.5875 6.6875 57.925 7.8125 57.4375 8.7125C57.1 9.3875 56.5 9.7625 55.7875 9.7625ZM2.12498 29.45C1.74998 29.45 1.37498 29.3375 1.03748 29.1125C0.249976 28.5125 -0.0125242 27.35 0.587476 26.4875C4.29998 21.2375 9.02498 17.1125 14.65 14.225C26.5 8.15 41.5 8.1125 53.3125 14.1875C58.9375 17.075 63.6625 21.125 67.375 26.375C67.975 27.2 67.75 28.4 66.925 29C66.0625 29.6 64.9 29.4125 64.3 28.625C60.925 23.825 56.65 20.1125 51.5875 17.525C40.825 12.0125 27.0625 12.0125 16.3375 17.5625C11.2375 20.1875 6.96248 23.9375 3.58748 28.625C3.28748 29.1875 2.72498 29.45 2.12498 29.45ZM25.5625 74.7125C25.075 74.7125 24.625 74.525 24.25 74.15C20.9875 70.8875 19.225 68.7875 16.7125 64.25C14.125 59.6375 12.775 54.0125 12.775 47.975C12.775 36.8375 22.3 27.7625 34 27.7625C45.7 27.7625 55.225 36.8375 55.225 47.975C55.225 48.4723 55.0274 48.9492 54.6758 49.3008C54.3242 49.6525 53.8473 49.85 53.35 49.85C52.8527 49.85 52.3758 49.6525 52.0242 49.3008C51.6725 48.9492 51.475 48.4723 51.475 47.975C51.475 38.9 43.6375 31.5125 34 31.5125C24.3625 31.5125 16.525 38.9 16.525 47.975C16.525 53.375 17.725 58.3625 20.0125 62.375C22.4125 66.725 24.0625 68.5625 26.95 71.4875C27.6625 72.2375 27.6625 73.4 26.95 74.15C26.5 74.525 26.05 74.7125 25.5625 74.7125ZM52.45 67.775C47.9875 67.775 44.05 66.65 40.825 64.4375C35.2375 60.65 31.9 54.5 31.9 47.975C31.9 47.4777 32.0975 47.0008 32.4492 46.6492C32.8008 46.2975 33.2777 46.1 33.775 46.1C34.2723 46.1 34.7492 46.2975 35.1008 46.6492C35.4524 47.0008 35.65 47.4777 35.65 47.975C35.65 53.2625 38.35 58.25 42.925 61.325C45.5875 63.125 48.7 63.9875 52.45 63.9875C53.35 63.9875 54.85 63.875 56.35 63.6125C57.3625 63.425 58.375 64.1 58.525 65.15C58.7125 66.125 58.0375 67.1375 56.9875 67.325C54.85 67.7375 52.975 67.775 52.45 67.775ZM44.9125 75.5C44.7625 75.5 44.575 75.5 44.425 75.5C38.4625 73.775 34.5625 71.5625 30.475 67.55C25.225 62.375 22.3375 55.4 22.3375 47.975C22.3375 41.9 27.5125 36.95 33.8875 36.95C40.2625 36.95 45.4375 41.9 45.4375 47.975C45.4375 51.9875 49 55.25 53.2375 55.25C57.55 55.25 61.0375 51.9875 61.0375 47.975C61.0375 33.8375 48.85 22.3625 33.85 22.3625C23.2 22.3625 13.375 28.2875 9.06248 37.475C7.59998 40.5125 6.84998 44.075 6.84998 47.975C6.84998 50.9 7.11248 55.5125 9.36248 61.5125C9.73748 62.4875 9.24998 63.575 8.27498 63.9125C7.29998 64.25 6.21248 63.7625 5.87498 62.825C3.99998 57.9125 3.13748 53 3.13748 47.975C3.13748 43.475 3.99998 39.3875 5.68748 35.825C10.675 25.3625 21.7375 18.575 33.85 18.575C50.875 18.575 64.7875 31.7375 64.7875 47.9375C64.7875 54.0125 59.6125 58.9625 53.2375 58.9625C46.8625 58.9625 41.6875 54.0125 41.6875 47.9375C41.6875 43.925 38.2 40.6625 33.8875 40.6625C29.575 40.6625 26.0875 43.925 26.0875 47.9375C26.0875 54.35 28.5625 60.35 33.1 64.85C36.6625 68.375 40.075 70.325 45.3625 71.75C46.375 72.05 46.9375 73.1 46.675 74.075C46.4875 74.9375 45.7 75.5 44.9125 75.5Z" fill="#1F65CD"/>
</svg>
