<svg width="43" height="43" viewBox="0 0 43 43" fill="none" xmlns="http://www.w3.org/2000/svg">
<g clip-path="url(#clip0_31_329)">
<path d="M43 35.832C43 39.7748 39.7748 43 35.832 43H7.16801C3.2252 43 0 39.7748 0 35.832V7.16801C0 3.2252 3.2252 0 7.16801 0H35.8401C39.7829 0 43.0081 3.2252 43.0081 7.16801V35.832H43Z" fill="#563D7C"/>
<path d="M11.6833 9.34502H23.8746C26.1242 9.34502 27.9303 9.86105 29.2849 10.8931C30.6395 11.9252 31.3248 13.4813 31.3248 15.5697C31.3248 16.8355 31.0184 17.916 30.3976 18.819C29.7767 19.7221 28.8979 20.4236 27.7449 20.9154V20.988C29.293 21.3186 30.4621 22.0523 31.2603 23.1811C32.0505 24.318 32.4537 25.7371 32.4537 27.4545C32.4537 28.4382 32.2763 29.3574 31.9296 30.2121C31.5748 31.0668 31.0265 31.8086 30.2766 32.4294C29.5268 33.0503 28.5673 33.5421 27.3981 33.9049C26.2209 34.2678 24.8341 34.4532 23.2134 34.4532H11.6833V9.34502ZM16.0777 19.8511H23.2457C24.302 19.8511 25.1808 19.5528 25.8823 18.9481C26.5838 18.3433 26.9386 17.4887 26.9386 16.3598C26.9386 15.0939 26.6241 14.1989 25.9871 13.691C25.3582 13.1749 24.439 12.9169 23.2457 12.9169H16.0777V19.8511ZM16.0777 30.8491H23.8424C25.1808 30.8491 26.2209 30.5023 26.9466 29.8089C27.6884 29.1236 28.0593 28.1399 28.0593 26.874C28.0593 25.6323 27.6965 24.6809 26.9466 24.0036C26.2048 23.3263 25.1728 23.0037 23.8424 23.0037H16.0777V30.8491Z" fill="white"/>
</g>
<defs>
<clipPath id="clip0_31_329">
<rect width="43" height="43" fill="white"/>
</clipPath>
</defs>
</svg>
