<svg width="30" height="43" viewBox="0 0 30 43" fill="none" xmlns="http://www.w3.org/2000/svg">
<g clip-path="url(#clip0_30_297)">
<path d="M29.9966 8.45093L27.2674 39.5461L14.9759 43L2.72573 39.5461L-0.00341797 8.45093H29.9966Z" fill="#264DE4"/>
<path d="M24.9311 37.562L27.2571 10.9915H14.9966V40.3545L24.9311 37.562Z" fill="#2965F1"/>
<path d="M6.26123 22.5288L6.59204 26.3396H14.9966V22.5288H6.26123Z" fill="#EBEBEB"/>
<path d="M14.9966 14.8022H14.9863H5.57898L5.92012 18.6235H14.9966V14.8022Z" fill="#EBEBEB"/>
<path d="M14.9966 36.3967V32.4285L14.9863 32.439L10.7995 31.2842L10.5307 28.2502H8.50455H6.76782L7.28471 34.2341L14.9863 36.4072L14.9966 36.3967Z" fill="#EBEBEB"/>
<path d="M7.05725 0H11.6058V1.93164H8.95939V3.86328H11.6058V5.79492H7.05725V0Z" fill="white"/>
<path d="M12.5155 0H17.0641V1.67969H14.4176V2.01562H17.0641V5.87891H12.5155V4.11523H15.162V3.7793H12.5155V0Z" fill="white"/>
<path d="M17.9739 0H22.5225V1.67969H19.876V2.01562H22.5225V5.87891H17.9739V4.11523H20.6203V3.7793H17.9739V0Z" fill="white"/>
<path d="M19.6072 26.3396L19.173 31.2842L14.9862 32.439V36.3967L22.6878 34.2341L22.7395 33.5937L23.6285 23.5471L23.7112 22.5288L24.3935 14.8022H14.9862V18.6235H20.2791L19.938 22.5288H14.9862V26.3396H19.6072Z" fill="white"/>
</g>
<defs>
<clipPath id="clip0_30_297">
<rect width="30" height="43" fill="white"/>
</clipPath>
</defs>
</svg>
