<svg width="29" height="43" viewBox="0 0 29 43" fill="none" xmlns="http://www.w3.org/2000/svg">
<path d="M7.25148 43C11.2527 43 14.5 39.7893 14.5 35.8333V28.6667H7.25148C3.25028 28.6667 0.00292969 31.8773 0.00292969 35.8333C0.00292969 39.7893 3.25028 43 7.25148 43Z" fill="#0ACF83"/>
<path d="M0.00292969 21.5C0.00292969 17.544 3.25028 14.3333 7.25148 14.3333H14.5V28.6667H7.25148C3.25028 28.6667 0.00292969 25.456 0.00292969 21.5Z" fill="#A259FF"/>
<path d="M0.00292969 7.16667C0.00292969 3.21067 3.25028 0 7.25148 0H14.5V14.3333H7.25148C3.25028 14.3333 0.00292969 11.1227 0.00292969 7.16667Z" fill="#F24E1E"/>
<path d="M14.5 0H21.7486C25.7498 0 28.9971 3.21067 28.9971 7.16667C28.9971 11.1227 25.7498 14.3333 21.7486 14.3333H14.5V0Z" fill="#FF7262"/>
<path d="M28.9971 21.5C28.9971 25.456 25.7498 28.6667 21.7486 28.6667C17.7474 28.6667 14.5 25.456 14.5 21.5C14.5 17.544 17.7474 14.3333 21.7486 14.3333C25.7498 14.3333 28.9971 17.544 28.9971 21.5Z" fill="#1ABCFE"/>
</svg>
