<svg width="44" height="43" viewBox="0 0 44 43" fill="none" xmlns="http://www.w3.org/2000/svg">
<path fill-rule="evenodd" clip-rule="evenodd" d="M22 0C9.84414 0 0 9.86412 0 22.0447C0 31.8011 6.29922 40.0377 15.0434 42.9612C16.1434 43.155 16.5559 42.4919 16.5559 41.915C16.5559 41.3897 16.5301 39.6545 16.5301 37.8074C11.0043 38.8279 9.57344 36.4555 9.13086 35.2155C8.88164 34.5826 7.81172 32.6235 6.875 32.1025C6.10586 31.6892 5.00586 30.6688 6.84922 30.6429C8.58086 30.6171 9.81836 32.2403 10.2309 32.9034C12.2117 36.2359 15.3742 35.3016 16.6375 34.7203C16.8309 33.2866 17.4066 32.3221 18.0383 31.771C13.1441 31.2199 8.02656 29.3168 8.02656 20.8865C8.02656 18.4882 8.87734 16.5034 10.2824 14.9619C10.0633 14.4108 9.29414 12.1504 10.5016 9.11925C10.5016 9.11925 12.3449 8.5423 16.5516 11.3797C18.3133 10.8845 20.1824 10.6348 22.0516 10.6348C23.9207 10.6348 25.7898 10.8845 27.5516 11.3797C31.7582 8.51216 33.6016 9.11925 33.6016 9.11925C34.8133 12.1504 34.0398 14.4108 33.8207 14.9619C35.2215 16.5034 36.0766 18.4624 36.0766 20.8865C36.0766 29.3469 30.9332 31.2199 26.0391 31.771C26.8383 32.4599 27.5258 33.7817 27.5258 35.8484C27.5258 38.7977 27.5 41.1658 27.5 41.9107C27.5 42.4876 27.9125 43.1765 29.0125 42.9569C37.7008 40.0377 44 31.771 44 22.0447C44 9.86412 34.1559 0 22 0Z" fill="white"/>
</svg>
