<svg width="55" height="55" viewBox="0 0 55 55" fill="none" xmlns="http://www.w3.org/2000/svg">
<circle cx="27.5" cy="27.5" r="27.5" fill="white"/>
<g clip-path="url(#clip0_64_271)">
<path d="M12.3864 41H17.9545V27.0909L10 20.9546V38.5455C10 39.9037 11.0699 41 12.3864 41Z" fill="#4285F4"/>
<path d="M37.0455 41H42.6136C43.9341 41 45 39.8996 45 38.5455V20.9546L37.0455 27.0909" fill="#34A853"/>
<path d="M37.0455 16.4546V27.0909L45 20.9546V17.6818C45 14.6464 41.6313 12.9159 39.2727 14.7364" fill="#FBBC04"/>
<path d="M17.9545 27.0909V16.4546L27.5 23.8182L37.0455 16.4546V27.0909L27.5 34.4546" fill="#EA4335"/>
<path d="M10 17.6818V20.9546L17.9545 27.0909V16.4546L15.7273 14.7364C13.3648 12.9159 10 14.6464 10 17.6818Z" fill="#C5221F"/>
</g>
<defs>
<clipPath id="clip0_64_271">
<rect width="35" height="27" fill="white" transform="translate(10 14)"/>
</clipPath>
</defs>
</svg>
