<svg width="30" height="43" viewBox="0 0 30 43" fill="none" xmlns="http://www.w3.org/2000/svg">
<g clip-path="url(#clip0_31_394)">
<path d="M2.81149 -0.0167999H4.71337V1.89804H6.4664V-0.0167999H8.36827L8.36 5.77812H6.45813V3.84648H4.72163V5.77812H2.80322L2.81149 -0.0167999ZM10.8738 1.92324H9.19517V-0.00840149L14.4708 -3.04915e-06V1.93164H12.7839L12.7757 5.79492H10.8738V1.92324ZM15.306 -3.04915e-06H17.2988L18.5226 2.04082L19.7464 -3.04915e-06H21.7393L21.731 5.79492H19.8291L19.8374 2.92265L18.5061 5.00547L17.1748 2.92265L17.1582 5.79492H15.2894L15.306 -3.04915e-06ZM22.6819 0.00839539H24.5838L24.5755 3.88847L27.2712 3.89687V5.81172L22.6737 5.80332" fill="white"/>
<path d="M2.67916 39.5398L0 8.42363L30 8.47402L27.2216 39.5566L14.9173 43" fill="#E44D26"/>
<path d="M14.9504 40.3545L14.9918 11.002L27.2547 11.0187L24.8733 37.5578" fill="#F16529"/>
<path d="M5.56506 14.7896L14.9917 14.8064L14.9835 18.6193L9.67477 18.6109L10.0138 22.5162L14.9752 22.5246L14.9669 26.3291L6.56561 26.3123L5.56506 14.7896ZM6.731 28.2271L10.5017 28.2355L10.758 31.2842L14.9587 32.4348L14.9504 36.4156L7.24367 34.2236" fill="#EBEBEB"/>
<path d="M24.3853 14.8232L14.9752 14.8064L14.9669 18.6193L24.0298 18.6361L24.3853 14.8232ZM23.6825 22.5414L14.9586 22.5246L14.9504 26.3375L19.581 26.3459L19.1345 31.301L14.9421 32.4348L14.9338 36.3988L22.624 34.2404" fill="white"/>
</g>
<defs>
<clipPath id="clip0_31_394">
<rect width="30" height="43" fill="white"/>
</clipPath>
</defs>
</svg>
