<svg width="44" height="43" viewBox="0 0 44 43" fill="none" xmlns="http://www.w3.org/2000/svg">
<path d="M7.79167 0H36.2083C40.5167 0 44 3.49145 44 7.80983V35.1902C44 39.5085 40.5167 43 36.2083 43H7.79167C3.48333 43 0 39.5085 0 35.1902V7.80983C0 3.49145 3.48333 0 7.79167 0Z" fill="#330000"/>
<path d="M21.2667 25.7265H14.4467L13.0534 30.0449C13.0167 30.2103 12.87 30.3205 12.705 30.3021H9.25837C9.05671 30.3021 9.00171 30.1919 9.05671 29.9714L14.96 12.9368C15.015 12.753 15.07 12.5509 15.1434 12.3303C15.2167 11.9444 15.2534 11.5402 15.2534 11.1359C15.235 11.044 15.3084 10.9521 15.4 10.9338H15.455H20.1484C20.295 10.9338 20.3684 10.9889 20.3867 11.0808L27.0784 30.0081C27.1334 30.2103 27.0784 30.3021 26.895 30.3021H23.0634C22.935 30.3205 22.8067 30.2286 22.77 30.1L21.2667 25.7265ZM15.51 21.9962H20.1667C20.0567 21.6103 19.91 21.1509 19.745 20.6731C19.58 20.1769 19.415 19.644 19.25 19.0927C19.0667 18.5231 18.9017 17.9718 18.7184 17.4021C18.535 16.8325 18.37 16.2996 18.2234 15.7667C18.0767 15.2521 17.9484 14.7744 17.82 14.3333H17.7834C17.6184 15.1235 17.4167 15.9137 17.16 16.7038C16.885 17.5859 16.61 18.5047 16.3167 19.4235C16.06 20.3607 15.785 21.2244 15.51 21.9962Z" fill="#FF9A00"/>
<path d="M31.1667 14.1496C30.5617 14.168 29.975 13.9291 29.535 13.5064C29.1134 13.047 28.8934 12.4406 28.9117 11.8158C28.8934 11.191 29.1317 10.603 29.5717 10.1803C30.0117 9.7577 30.5984 9.53719 31.2034 9.53719C31.9184 9.53719 32.4684 9.7577 32.8717 10.1803C33.275 10.6214 33.495 11.2094 33.4767 11.8158C33.495 12.4406 33.275 13.047 32.835 13.5064C32.4134 13.9474 31.79 14.1863 31.1667 14.1496ZM29.1134 30.1V15.9504C29.1134 15.7667 29.1867 15.6932 29.3517 15.6932H32.9817C33.1467 15.6932 33.22 15.785 33.22 15.9504V30.1C33.22 30.3021 33.1467 30.394 32.9817 30.394H29.3884C29.205 30.394 29.1134 30.2838 29.1134 30.1Z" fill="#FF9A00"/>
</svg>
