<svg width="30" height="43" viewBox="0 0 30 43" fill="none" xmlns="http://www.w3.org/2000/svg">
<g clip-path="url(#clip0_30_309)">
<path d="M0.0981445 8.40018L0.105696 8.78445C0.105696 8.99964 0.709773 15.9934 1.44222 24.3321L2.77119 39.5031L8.75911 41.2093C12.0513 42.1469 14.815 42.9232 14.898 42.9232C14.9811 42.9308 17.7825 42.1623 21.12 41.2247C26.4737 39.7183 27.191 39.4878 27.2288 39.3033C27.2816 39.042 29.9018 8.95353 29.9018 8.63074V8.40018H15.0038H0.0981445Z" fill="white"/>
<path d="M8.81198 41.3092L2.77121 39.5877L2.6957 39.1342C2.62019 38.7346 0 8.95353 0 8.56157C0 8.41555 1.53285 8.40018 15.0038 8.40018C29.2222 8.40018 30.0075 8.40786 30.0075 8.57694C30 9.31474 27.2892 39.4877 27.2212 39.5415C27.1382 39.6184 15.4417 42.9308 15.0566 42.9923C14.9434 43.0154 12.1344 42.2545 8.81198 41.3092ZM18.8095 35.2377C20.8407 34.669 22.5321 34.1694 22.5698 34.1387C22.6076 34.1079 22.8417 31.6563 23.0984 28.6974C23.3551 25.7385 23.5892 23.1255 23.6194 22.8795L23.6798 22.4415H19.2927H14.9056V24.3398V26.2381H17.2766H19.6476L19.6023 26.4686C19.5797 26.5916 19.4739 27.6829 19.3758 28.8895C19.2701 30.1653 19.1493 31.1337 19.0813 31.1952C19.0209 31.2566 18.0544 31.5641 16.9368 31.8638L14.9056 32.4171V34.3462C14.9056 35.6681 14.9434 36.2752 15.0113 36.2752C15.0717 36.2752 16.7782 35.8064 18.8095 35.2377ZM23.6119 20.059C23.5439 19.5594 22.9549 12.8193 22.9549 12.5657C22.9549 12.412 22.6076 12.3966 18.9756 12.3966H14.9962V14.3794V16.3623L16.7858 16.4315C17.7674 16.4699 18.8019 16.5314 19.0813 16.5621L19.5948 16.6236L19.7156 18.176C19.7835 19.0291 19.8666 19.8976 19.8968 20.1128L19.9572 20.497H21.8147H23.6723L23.6119 20.059Z" fill="#EAEBEC"/>
<path d="M8.75911 41.2093L2.77119 39.5031L1.44222 24.3398C0.709773 15.9934 0.105696 8.99964 0.105696 8.78445L0.0981445 8.40018H14.9962H29.9018V8.63074C29.9018 8.95353 27.2816 39.042 27.2288 39.3033C27.191 39.4878 26.4661 39.7183 21.12 41.2247C17.7825 42.1623 14.9811 42.9308 14.898 42.9232C14.815 42.9232 12.0589 42.1469 8.75911 41.2093ZM18.817 35.3146C20.886 34.7305 22.6076 34.2002 22.6453 34.1387C22.6831 34.0772 22.9323 31.5026 23.1966 28.4131C23.4608 25.3235 23.7025 22.7181 23.7327 22.6182C23.778 22.4492 23.4231 22.4415 17.3521 22.4415H10.9187L11.1905 19.4979C11.3415 17.8763 11.4699 16.5467 11.4699 16.5391C11.4775 16.5314 12.4213 16.5006 13.5691 16.4699C15.4568 16.4161 19.338 16.5698 19.4664 16.7004C19.5117 16.7466 19.8364 19.9437 19.8364 20.3741C19.8364 20.5893 19.8666 20.5893 21.7845 20.5893H23.7327L23.6874 20.1512C23.6647 19.913 23.4986 18.0531 23.3174 16.0241L22.9927 12.3351L15.4719 12.3121C9.484 12.289 7.95115 12.3121 7.9436 12.412C7.9436 12.4811 7.8983 12.9346 7.84544 13.4111C7.71707 14.5716 6.73545 25.7693 6.73545 26.0767V26.3226H13.1387H19.5419L19.4815 26.7069C19.4513 26.9221 19.3531 27.9904 19.2625 29.0894C19.1719 30.1884 19.0662 31.1183 19.036 31.1491C18.9454 31.2413 15.1774 32.2635 14.9434 32.2635C14.8376 32.2635 13.8636 32.0175 12.7838 31.7178L10.8205 31.1721L10.745 30.3114C10.7073 29.8349 10.6468 29.1662 10.6091 28.8127L10.5487 28.1748H8.64584H6.743L6.75055 28.5591C6.7581 29.2815 7.21871 34.1156 7.27912 34.1848C7.35463 34.2617 14.6715 36.3598 14.898 36.3675C14.9811 36.3752 16.748 35.8987 18.817 35.3146Z" fill="#F0BE25"/>
<path d="M8.75911 41.2093L2.77119 39.5031L1.44222 24.3398C0.709773 15.9934 0.105696 8.99964 0.105696 8.78445L0.0981445 8.40018H14.9962H29.9018V8.63074C29.9018 8.95353 27.2816 39.042 27.2288 39.3033C27.191 39.4878 26.4661 39.7183 21.12 41.2247C17.7825 42.1623 14.9811 42.9308 14.898 42.9232C14.815 42.9232 12.0589 42.1469 8.75911 41.2093ZM19.927 38.9267C22.5623 38.1889 24.7672 37.528 24.8276 37.4665C24.9182 37.3666 27.1986 11.9893 27.1835 11.1439V10.8595H21.0898H14.9962V11.5743V12.289H11.4775C8.7289 12.289 7.95115 12.3197 7.95115 12.4197C7.95115 12.4888 7.90585 12.9423 7.85299 13.4188C7.72462 14.5793 6.743 25.7769 6.743 26.0844V26.3303H10.8734H15.0038V29.3046C15.0038 31.6179 14.9736 32.2788 14.8754 32.2711C14.8074 32.2711 13.8636 32.0252 12.7838 31.7255L10.8205 31.1798L10.745 30.319C10.7073 29.8425 10.6468 29.1739 10.6091 28.8204L10.5487 28.1825H8.64584H6.743L6.75055 28.5668C6.76565 29.6658 7.22626 34.1541 7.33952 34.2232C7.40748 34.2617 9.15931 34.7766 11.2283 35.3607L14.9962 36.4213V38.3503C14.9962 39.4109 15.0264 40.2794 15.0642 40.2794C15.1095 40.2717 17.2917 39.6645 19.927 38.9267ZM11.1754 19.521C11.3189 17.9147 11.4548 16.5852 11.485 16.5621C11.5077 16.5391 12.3081 16.5006 13.267 16.4699L15.0038 16.4238V19.4288V22.4415H12.9574H10.9111L11.1754 19.521Z" fill="#E4A126"/>
<path d="M9.56712 4.76497V3.78892H10.9263H12.2855V1.8983V0H13.2444H14.1959V2.86667V5.73333H11.8777H9.55957V4.76497H9.56712ZM15.102 4.97248V4.20393H16.363C17.0577 4.20393 17.624 4.18088 17.624 4.14245C17.624 4.10402 17.0577 3.45844 16.363 2.69759L15.102 1.30652V0.653262V0H17.7222H20.3424V0.768543V1.53709L19.1115 1.56783L17.8807 1.59857L19.1569 2.99732L20.433 4.39607V5.07239V5.7487H17.7675H15.102V4.97248Z" fill="white"/>
</g>
<defs>
<clipPath id="clip0_30_309">
<rect width="30" height="43" fill="white"/>
</clipPath>
</defs>
</svg>
