<svg width="55" height="55" viewBox="0 0 55 55" fill="none" xmlns="http://www.w3.org/2000/svg">
<circle cx="27.5" cy="27.5" r="27.5" fill="#0A66C2"/>
<g clip-path="url(#clip0_64_264)">
<path d="M17.6969 44.9167V20.7955H9.64507V44.9167H17.6969ZM13.675 17.503C16.4806 17.503 18.2321 15.6469 18.2321 13.3388C18.1753 10.9663 16.4806 9.16667 13.7237 9.16667C10.9668 9.16667 9.16666 10.9663 9.16666 13.3388C9.16666 15.6549 10.9181 17.503 13.6183 17.503H13.675V17.503ZM22.1566 44.9167H30.2166V31.4479C30.2166 30.7296 30.2733 30.0033 30.4842 29.4949C31.068 28.0504 32.3897 26.5655 34.6195 26.5655C37.5305 26.5655 38.6982 28.7767 38.6982 32.0208V44.9167H46.7581V31.0847C46.7581 23.6765 42.7849 20.2306 37.4819 20.2306C33.1357 20.2306 31.2301 22.6516 30.1679 24.2979H30.2247V20.8036H22.1647C22.262 23.0632 22.1566 44.9167 22.1566 44.9167Z" fill="white"/>
</g>
<defs>
<clipPath id="clip0_64_264">
<rect width="37.5833" height="35.75" fill="white" transform="translate(9.16666 9.16667)"/>
</clipPath>
</defs>
</svg>
