<svg width="44" height="43" viewBox="0 0 44 43" fill="none" xmlns="http://www.w3.org/2000/svg">
<g clip-path="url(#clip0_31_415)">
<path d="M43.138 6.76563L36.0486 13.7786L30.0457 7.83175L37.1845 0.823276C35.1641 -0.00892379 33.0853 -0.211351 30.9482 0.224992C28.7122 0.656836 26.8041 1.65548 25.2327 3.22541C23.3155 5.15971 22.2604 7.48088 22.0673 10.1889C21.8833 12.8969 22.5837 15.3215 24.191 17.4718L20.9314 20.1438L9.87306 9.02832L9.82816 5.66353L3.21469 1.60599L0 4.83133L4.01837 11.282H7.47102L18.4306 22.258L1.93959 36.0456C1.2751 36.7248 0.951837 37.521 0.951837 38.4387C0.951837 39.3654 1.28408 40.1616 1.93959 40.8319L3.12041 41.9834C3.7849 42.6627 4.58857 43.0001 5.53143 43.0001C6.44735 43.0001 7.23306 42.6627 7.89306 41.9834L22.3906 26.2211L24.42 28.2949L23.2841 29.4465C22.9743 29.7838 22.8127 30.1842 22.8127 30.643C22.8127 31.1019 22.9698 31.5022 23.2841 31.8396L33.7273 42.3973C34.0731 42.7347 34.4861 42.9011 34.9576 42.9011C35.429 42.9011 35.8196 42.7347 36.1384 42.3973L40.911 37.602C41.2567 37.2961 41.4273 36.9093 41.4273 36.4504C41.4273 35.9916 41.2567 35.5912 40.911 35.2539L30.4229 24.6512C30.1131 24.3453 29.7135 24.1924 29.242 24.1924C28.802 24.1924 28.4069 24.3453 28.0612 24.6512L26.7412 25.9422L24.6175 23.819L27.6437 20.4992C29.7898 21.6958 32.0527 22.1411 34.4502 21.8352C36.9061 21.5293 39.0163 20.4992 40.7853 18.7493C42.3927 17.1524 43.4029 15.2451 43.8114 13.0274C44.2065 10.8861 43.9865 8.7944 43.138 6.76563ZM5.90857 40.1031C5.59878 40.4405 5.19918 40.6069 4.72776 40.6069C4.25633 40.6069 3.84327 40.4405 3.49755 40.1031C3.18776 39.7972 3.02612 39.4104 3.02612 38.9515C3.02612 38.4927 3.18327 38.0923 3.49755 37.755C3.84327 37.4176 4.25633 37.2511 4.72776 37.2511C5.19918 37.2511 5.5898 37.4176 5.90857 37.755C6.25429 38.0923 6.4249 38.4927 6.4249 38.9515C6.4249 39.4104 6.25429 39.7972 5.90857 40.1031Z" fill="white"/>
</g>
<defs>
<clipPath id="clip0_31_415">
<rect width="44" height="43" fill="white"/>
</clipPath>
</defs>
</svg>
