<svg width="44" height="43" viewBox="0 0 44 43" fill="none" xmlns="http://www.w3.org/2000/svg">
<path d="M7.79167 0H36.2083C40.5167 0 44 3.49145 44 7.80983V35.1902C44 39.5085 40.5167 43 36.2083 43H7.79167C3.48333 43 0 39.5085 0 35.1902V7.80983C0 3.49145 3.48333 0 7.79167 0Z" fill="#001E36"/>
<path d="M9.90002 30.1551V11.2462C9.90002 11.1175 9.95502 11.044 10.0834 11.044C10.395 11.044 10.6884 11.044 11.11 11.0256C11.55 11.0073 12.0084 11.0073 12.5034 10.9889C12.9984 10.9705 13.53 10.9705 14.0984 10.9521C14.6667 10.9338 15.2167 10.9338 15.7667 10.9338C17.27 10.9338 18.5167 11.1175 19.5434 11.5034C20.46 11.8158 21.3034 12.3303 22 13.0103C22.5867 13.5983 23.045 14.315 23.3384 15.1051C23.6134 15.8769 23.76 16.6671 23.76 17.494C23.76 19.0744 23.3934 20.3791 22.66 21.4081C21.9267 22.4372 20.9 23.209 19.7084 23.65C18.4617 24.1094 17.0867 24.2748 15.5834 24.2748C15.1434 24.2748 14.85 24.2748 14.6667 24.2564C14.4834 24.238 14.2267 24.238 13.8784 24.238V30.1368C13.8967 30.2654 13.805 30.3756 13.6767 30.394C13.6584 30.394 13.64 30.394 13.6034 30.394H10.12C9.97336 30.394 9.90002 30.3205 9.90002 30.1551ZM13.8967 14.5906V20.765C14.1534 20.7833 14.3917 20.8017 14.6117 20.8017H15.5834C16.2984 20.8017 17.0134 20.6915 17.6917 20.4709C18.2784 20.3056 18.7917 19.9564 19.195 19.497C19.58 19.0376 19.7634 18.4128 19.7634 17.6043C19.7817 17.0346 19.635 16.465 19.3417 15.9688C19.03 15.491 18.59 15.1235 18.0584 14.9214C17.38 14.6457 16.6467 14.5355 15.895 14.5538C15.4184 14.5538 14.9967 14.5538 14.6484 14.5722C14.2817 14.5538 14.025 14.5722 13.8967 14.5906Z" fill="#31A8FF"/>
<path d="M35.2 19.644C34.65 19.35 34.0634 19.1479 33.44 19.0192C32.7617 18.8722 32.0834 18.7803 31.3867 18.7803C31.02 18.762 30.635 18.8171 30.2867 18.909C30.0484 18.9641 29.8467 19.0927 29.7184 19.2765C29.6267 19.4235 29.5717 19.6073 29.5717 19.7727C29.5717 19.938 29.645 20.1034 29.755 20.2504C29.92 20.4526 30.14 20.6179 30.3784 20.7466C30.8 20.9671 31.24 21.1692 31.68 21.353C32.67 21.6838 33.6234 22.1432 34.5034 22.6944C35.1084 23.0803 35.6034 23.5949 35.9517 24.2197C36.245 24.8077 36.3917 25.4509 36.3734 26.1124C36.3917 26.9761 36.135 27.8397 35.6584 28.5564C35.145 29.2915 34.43 29.8611 33.605 30.1919C32.7067 30.5778 31.6067 30.7799 30.2867 30.7799C29.4434 30.7799 28.6184 30.7064 27.7934 30.541C27.1517 30.4308 26.51 30.2286 25.9234 29.953C25.795 29.8795 25.7034 29.7509 25.7217 29.6038V26.4064C25.7217 26.3513 25.74 26.2778 25.795 26.241C25.85 26.2043 25.905 26.2226 25.96 26.2594C26.675 26.682 27.4267 26.9761 28.2334 27.1598C28.93 27.3436 29.6634 27.4355 30.3967 27.4355C31.0934 27.4355 31.5884 27.3436 31.9184 27.1782C32.2117 27.0496 32.4134 26.7372 32.4134 26.4064C32.4134 26.1491 32.2667 25.9103 31.9734 25.6714C31.68 25.4325 31.075 25.1568 30.1767 24.8077C29.2417 24.4769 28.38 24.0359 27.5734 23.4846C27.005 23.0803 26.5284 22.5474 26.18 21.9227C25.8867 21.3346 25.74 20.6915 25.7584 20.0483C25.7584 19.2581 25.9784 18.5047 26.3817 17.8248C26.84 17.0897 27.5184 16.5017 28.3067 16.1342C29.1684 15.6932 30.25 15.491 31.5517 15.491C32.3034 15.491 33.0734 15.5462 33.825 15.6564C34.375 15.7299 34.9067 15.8769 35.4017 16.0791C35.475 16.0974 35.5484 16.1709 35.585 16.2444C35.6034 16.318 35.6217 16.3915 35.6217 16.465V19.4603C35.6217 19.5338 35.585 19.6073 35.53 19.644C35.365 19.6808 35.2734 19.6808 35.2 19.644Z" fill="#31A8FF"/>
</svg>
