<svg width="43" height="43" viewBox="0 0 43 43" fill="none" xmlns="http://www.w3.org/2000/svg">
<g clip-path="url(#clip0_33_420)">
<path d="M13.9379 32.9917C14.2812 32.8389 14.6291 32.6983 14.9801 32.5665C15.3765 32.4175 15.7761 32.2774 16.1811 32.1554C16.6852 32.0036 17.1934 31.8662 17.7086 31.7568C18.4037 31.609 19.1066 31.5004 19.8139 31.4315C19.4141 32.6855 18.9767 33.9272 18.5024 35.155C18.522 35.3947 18.5345 35.6349 18.5401 35.8753C19.5149 35.6825 20.5063 35.5854 21.5 35.5852C22.513 35.5852 23.5022 35.6863 24.4599 35.8753C24.4655 35.6349 24.478 35.3947 24.4976 35.155C24.0232 33.9273 23.5858 32.6855 23.1861 31.4315C23.8941 31.5002 24.5968 31.6094 25.2914 31.7568C25.8064 31.8662 26.3147 32.0036 26.8187 32.1554C27.2239 32.2774 27.6235 32.4175 28.0199 32.5665C28.3711 32.6985 28.7191 32.8391 29.0625 32.9919C31.5444 34.0954 33.7554 35.7275 35.541 37.7742C40.1064 33.8318 43 28.0056 43 21.5C43 9.62595 33.374 0 21.5 0C9.62595 0 0 9.62595 0 21.5C0 28.0056 2.8936 33.8316 7.45899 37.7742C9.24474 35.7274 11.4559 34.0953 13.9379 32.9917Z" fill="#A5DBE8"/>
<path d="M29.0624 32.9919L30.3971 37.5813L30.7757 37.5991C31.0215 37.5991 31.1943 37.6638 31.1943 37.9095C31.1943 38.318 31.2155 38.7771 31.2546 39.1779C31.5872 39.4602 31.9921 39.7787 32.2992 40.0881C33.4489 39.4185 34.5341 38.6439 35.541 37.7742C33.7554 35.7275 31.5443 34.0954 29.0624 32.9919ZM26.4527 32.9461L28.0198 32.5665C27.6234 32.4175 27.2238 32.2774 26.8187 32.1554C26.3146 32.0036 25.8064 31.8662 25.2914 31.7568C24.5962 31.609 23.8934 31.5004 23.186 31.4315C23.5858 32.6855 24.0232 33.9273 24.4975 35.155C24.478 35.3947 24.4654 35.6349 24.4599 35.8753C25.5704 36.0943 26.6622 36.4749 27.6716 36.9214L26.4527 32.9461Z" fill="#525353"/>
<path d="M10.7008 40.0881C10.9504 40.2336 11.2025 40.3755 11.4588 40.5111C11.5485 40.0802 11.692 39.4833 11.7353 39.04C11.4027 39.3223 11.0079 39.7787 10.7008 40.0881ZM27.6455 36.8818C26.6242 36.4294 25.5558 36.0918 24.46 35.8753C23.4851 35.6825 22.4938 35.5854 21.5 35.5852C20.4868 35.5852 19.4978 35.6863 18.5401 35.8753C17.4298 36.0941 16.2713 36.4262 15.2622 36.8725L15.1548 37.5412H27.8455L27.6455 36.8818Z" fill="black"/>
<path d="M11.696 39.1673C11.7353 38.7665 11.7637 38.4093 11.7637 38.0006C11.7637 37.755 11.9322 37.5976 12.1779 37.5976L12.5809 37.5835L13.9379 32.9918C11.4559 34.0953 9.24473 35.7274 7.45898 37.7742C8.46584 38.6439 9.55107 39.4185 10.7008 40.0881C11.0078 39.7784 11.3279 39.482 11.6602 39.1995" fill="#525353"/>
<path d="M31.4187 39.9841C31.5057 40.4209 31.5254 40.5079 31.5412 40.5111C31.7967 40.3753 32.0495 40.2342 32.2992 40.0881C31.9889 39.7751 31.6654 39.4753 31.3297 39.1896L31.4187 39.9841Z" fill="black"/>
<path d="M27.6455 36.8817L27.8456 37.5412H30.4413L29.0625 32.9919C28.7192 32.8398 28.3716 32.6979 28.0199 32.5665L26.4528 32.9461L27.6455 36.8817Z" fill="#AA9678"/>
<path d="M12.6042 38.4593C12.6175 38.45 12.631 38.4406 12.6441 38.4311H12.6061C12.6057 38.4404 12.6047 38.45 12.6042 38.4593Z" fill="#C4B6A1"/>
<path d="M30.3931 38.4311H30.3549L30.3947 38.4593C30.3944 38.45 30.3934 38.4404 30.3931 38.4311Z" fill="#AA9678"/>
<path d="M30.3493 38.3647L21.4816 38.3748L21.5 43C24.8003 43 27.9259 42.2544 30.7204 40.9254C30.5379 40.1239 30.5196 39.2605 30.4899 38.4203C30.4765 38.4106 30.3493 38.3647 30.3493 38.3647Z" fill="#AA9678"/>
<path d="M21.4857 38.394C21.4857 38.394 12.5691 38.3827 12.5555 38.3923C12.5259 39.2326 12.3526 40.2297 12.2797 40.9254C15.0742 42.2544 18.1997 43 21.5 43L21.505 38.4089L21.4857 38.394Z" fill="#C4B6A1"/>
<path d="M21.5 37.9861H21.5002V38.4311H21.5V37.9861Z" fill="#786453"/>
<path d="M28.1506 34.9644L28.1551 34.9783L28.1506 34.9644C28.1506 34.9644 27.9325 34.7915 27.6559 34.4732C27.9325 34.7915 28.1506 34.9644 28.1506 34.9644Z" fill="#AA9678"/>
<path d="M34.7201 15.5116V15.5126V15.5116ZM35.5853 21.7017L35.5855 21.6954L35.5853 21.7017Z" fill="white"/>
<path d="M35.5855 21.6957L35.5853 21.6895L35.5855 21.6957Z" fill="#BBBCBD"/>
<path d="M35.5614 21.3604C35.5621 21.3661 35.5637 21.3712 35.5644 21.3769C35.5649 21.3804 35.5659 21.3836 35.5664 21.387V21.3883C35.5767 21.4704 35.5805 21.5563 35.5824 21.6428C35.5827 21.6587 35.5854 21.6737 35.5854 21.6895L35.5856 21.6953L35.5854 21.7017C35.5852 21.7189 35.5824 21.7348 35.5822 21.7518C35.5811 21.8352 35.5759 21.9185 35.5666 22.0014V22.0026L35.5642 22.0148C35.5636 22.0214 35.5616 22.0273 35.5607 22.0336C35.5494 22.1193 35.5333 22.2043 35.5125 22.2881L35.5122 22.2893V22.2895L35.5152 22.2861L35.5164 22.2822V22.2824L36.0791 21.6933L35.5118 21.0996L35.512 21.1007C35.5332 21.1835 35.5493 21.2706 35.5614 21.3604Z" fill="#676A6A"/>
<path d="M35.5607 22.0336C35.5622 22.0226 35.565 22.0126 35.5666 22.0014C35.5765 21.9208 35.5802 21.8366 35.5822 21.7518C35.5823 21.7326 35.5854 21.7147 35.5854 21.6954C35.5854 21.6774 35.5827 21.6606 35.5824 21.6428C35.5814 21.5577 35.576 21.4728 35.5664 21.3883C35.5651 21.3786 35.5625 21.37 35.5614 21.3604C35.5499 21.273 35.5334 21.1863 35.512 21.1007C35.5046 21.0719 35.4943 21.0462 35.4858 21.0183C35.4349 20.85 35.3655 20.7013 35.2832 20.5779C35.2517 20.5309 35.2172 20.486 35.1801 20.4435C35.1461 20.4059 35.1089 20.3713 35.0689 20.3402C35.0541 20.3289 35.0385 20.321 35.0234 20.3113C34.977 20.2808 34.9269 20.2566 34.8742 20.2392C34.8245 20.2227 34.7726 20.2138 34.7202 20.2127C34.6674 20.2127 34.6164 20.2238 34.5661 20.2392C34.5134 20.2565 34.4632 20.2808 34.4168 20.3113C34.402 20.321 34.3862 20.3288 34.3716 20.34C34.3025 20.394 34.2417 20.4579 34.1912 20.5296C34.1795 20.5455 34.1681 20.5616 34.1571 20.578C34.0748 20.7015 34.0053 20.8501 33.9546 21.0184L33.9482 21.0386C33.9257 21.1159 33.9082 21.1972 33.8936 21.2806C33.8892 21.3062 33.8834 21.3307 33.8798 21.3569C33.8664 21.4503 33.8595 21.5477 33.8578 21.6475C33.8577 21.6613 33.8555 21.6744 33.8555 21.6881H33.8588C33.8588 22.5071 34.2463 23.171 34.7242 23.171C34.8065 23.171 34.8856 23.1495 34.961 23.1127C35.0062 23.0905 35.0489 23.0635 35.0884 23.0322C35.1046 23.0191 35.1199 23.0033 35.1356 22.9885C35.1737 22.9529 35.21 22.9126 35.2444 22.8678C35.2682 22.8364 35.2918 22.805 35.3136 22.7698C35.3275 22.7475 35.3403 22.7233 35.3532 22.6995C35.3774 22.6548 35.4003 22.6083 35.4209 22.5589C35.4287 22.5411 35.4366 22.5238 35.4436 22.5055C35.47 22.4368 35.493 22.3642 35.5125 22.2881C35.5331 22.207 35.5486 22.1217 35.5607 22.0336ZM34.7512 21.498C34.572 21.498 34.4267 21.2489 34.4267 20.9418C34.4267 20.635 34.572 20.3859 34.7512 20.3859C34.9305 20.3859 35.0756 20.635 35.0756 20.9418C35.0756 21.2489 34.9305 21.498 34.7512 21.498Z" fill="black"/>
<path d="M34.7513 20.3859C34.5721 20.3859 34.4268 20.635 34.4268 20.9418C34.4268 21.2489 34.5721 21.498 34.7513 21.498C34.9305 21.498 35.0756 21.2489 35.0756 20.9418C35.0756 20.635 34.9305 20.3859 34.7513 20.3859Z" fill="white"/>
<path d="M33.9545 21.0184C34.0052 20.8501 34.0748 20.7015 34.1571 20.578C34.1682 20.5612 34.1794 20.5456 34.1912 20.5296C34.2415 20.4577 34.3023 20.3938 34.3716 20.34C34.3862 20.3288 34.402 20.321 34.4168 20.3113C34.4631 20.2807 34.5133 20.2565 34.5661 20.2392C34.6161 20.2234 34.6674 20.2127 34.7201 20.2127C34.7729 20.2127 34.8241 20.2234 34.8741 20.2392C34.9268 20.2566 34.977 20.2808 35.0233 20.3113C35.0384 20.321 35.054 20.3289 35.0688 20.3402C35.1075 20.3697 35.1444 20.4047 35.18 20.4435C35.2172 20.486 35.2516 20.5309 35.2832 20.5779C35.3655 20.7013 35.4348 20.85 35.4857 21.0183V21.0186L34.7201 17.5119L33.9543 21.0184H33.9545Z" fill="#909393"/>
<path d="M24.5737 21.6626C24.5727 21.5921 24.5681 21.5223 24.5602 21.4538C24.5601 21.453 24.5597 21.452 24.5597 21.451C24.5518 21.3839 24.5405 21.3173 24.526 21.2514L24.5246 21.2464C24.5102 21.1821 24.4927 21.1185 24.472 21.0559L24.4704 21.0517C24.4499 20.9896 24.4262 20.9286 24.3995 20.8689C24.3991 20.8678 24.3983 20.8666 24.3978 20.8653C24.1844 20.3904 23.7973 20.0153 23.3159 19.8171L23.31 19.8149C23.1929 19.7672 23.0715 19.7306 22.9475 19.7056C22.9444 19.7051 22.9413 19.7049 22.9381 19.7043C22.8102 19.679 22.6801 19.6662 22.5496 19.6661C22.4188 19.6661 22.2916 19.6796 22.1678 19.7032L22.1547 19.7053C22.0316 19.7298 21.9129 19.7657 21.7988 19.8114L21.7897 19.8149C21.6744 19.8617 21.5637 19.9191 21.459 19.9864C21.3544 20.054 21.2561 20.1307 21.1657 20.2155L21.1635 20.2224L21.156 20.2241C21.0112 20.3618 20.8874 20.5199 20.7883 20.6934L20.7846 20.6996C20.7544 20.7529 20.727 20.8083 20.7018 20.8647C20.6991 20.8708 20.6958 20.8765 20.6932 20.8826C20.6702 20.9348 20.6504 20.9889 20.6319 21.0433C20.6284 21.054 20.6237 21.0641 20.6203 21.0747C20.6042 21.1256 20.5911 21.1778 20.5787 21.2301C20.5755 21.2452 20.5706 21.2596 20.5674 21.2746C20.5567 21.3263 20.5493 21.3792 20.5424 21.4323C20.5404 21.4486 20.5369 21.4642 20.5352 21.4805C20.5141 21.6817 20.5234 21.8848 20.5627 22.0832C20.5631 22.0857 20.5632 22.0886 20.5639 22.0913C20.5893 22.2177 20.6265 22.3397 20.6744 22.4564C20.6751 22.4581 20.6754 22.4598 20.6763 22.4613C20.7732 22.6957 20.9131 22.9099 21.0888 23.0929C21.2265 23.2365 21.3851 23.3596 21.5595 23.458L21.562 23.4595C21.6164 23.4901 21.6727 23.5176 21.7299 23.5432C21.7346 23.5452 21.7392 23.5479 21.744 23.5499C21.7971 23.5731 21.8521 23.5931 21.9073 23.6117C21.9167 23.6149 21.9258 23.6189 21.9352 23.622C21.9863 23.6382 22.039 23.6514 22.0917 23.6634C22.106 23.6668 22.1198 23.6715 22.1342 23.6745C22.1855 23.6851 22.2382 23.6923 22.2913 23.6992C22.3072 23.7011 22.323 23.7048 22.3393 23.7064C22.8124 23.7563 23.2879 23.6377 23.6821 23.3715C23.8978 23.2258 24.0835 23.0401 24.2293 22.8244C24.4552 22.4899 24.5757 22.0955 24.5753 21.6918C24.5753 21.687 24.5747 21.6824 24.5747 21.6779C24.5745 21.6727 24.5738 21.6678 24.5737 21.6626ZM22.5496 21.4253C22.4497 21.4252 22.3507 21.4056 22.2584 21.3673C22.1661 21.329 22.0822 21.273 22.0116 21.2023C21.9409 21.1316 21.8849 21.0477 21.8466 20.9554C21.8084 20.8631 21.7887 20.7641 21.7887 20.6642C21.7887 20.5643 21.8084 20.4653 21.8467 20.373C21.8849 20.2807 21.941 20.1968 22.0117 20.1261C22.0823 20.0555 22.1662 19.9994 22.2586 19.9612C22.3509 19.923 22.4499 19.9033 22.5498 19.9033C22.7516 19.9033 22.9452 19.9835 23.0879 20.1262C23.2306 20.269 23.3107 20.4625 23.3107 20.6644C23.3107 20.8662 23.2305 21.0597 23.0878 21.2024C22.945 21.3451 22.7515 21.4253 22.5496 21.4253Z" fill="black"/>
<path d="M22.5496 19.9033C22.3478 19.9033 22.1543 19.9835 22.0116 20.1262C21.8689 20.2688 21.7887 20.4624 21.7887 20.6642C21.7887 20.866 21.8689 21.0595 22.0116 21.2022C22.1543 21.3449 22.3478 21.4251 22.5496 21.4251C22.7514 21.4251 22.9449 21.3449 23.0876 21.2022C23.2303 21.0595 23.3105 20.866 23.3105 20.6642C23.3105 20.4624 23.2303 20.2688 23.0876 20.1262C22.9449 19.9835 22.7514 19.9033 22.5496 19.9033Z" fill="white"/>
<path d="M21.1559 20.2241L21.1635 20.2224L21.1657 20.2155L22.5608 15.9488V14.9502L22.5607 14.939C21.7732 14.7759 20.9713 14.6932 20.1671 14.6921C19.8942 14.6921 19.6234 14.7037 19.3543 14.722C19.3152 14.7246 19.2759 14.727 19.2366 14.73C17.8362 14.8363 16.4572 15.2013 15.1803 15.7842C14.0853 16.2842 13.0679 16.9428 12.1533 17.7237V17.7239L12.1518 17.7252C11.9071 17.9348 11.6701 18.1531 11.4411 18.3798C11.3981 18.4218 11.3545 18.4635 11.312 18.5061C11.0956 18.7244 10.8862 18.9495 10.6843 19.1812C10.6404 19.2317 10.5973 19.2833 10.5539 19.3344C10.3501 19.5735 10.1539 19.819 9.9657 20.0706C9.95008 20.0917 9.93547 20.1139 9.92001 20.1351C9.74146 20.3789 9.57028 20.6281 9.4067 20.8822C9.37462 20.9318 9.3417 20.9806 9.31029 21.0307C9.17759 21.2412 9.05414 21.4573 8.93152 21.674H15.287L21.1559 20.2241Z" fill="#BBBCBD"/>
<path d="M26.5215 19.7441C26.5344 19.5776 26.545 19.4113 26.5535 19.2447C26.5651 19.0193 26.573 18.7935 26.5774 18.5679C26.5808 18.3927 26.5802 18.2174 26.5794 18.0422C26.5794 17.9916 26.5806 17.9411 26.5801 17.8904C26.5748 17.438 26.5582 16.9859 26.5302 16.5343L26.5263 16.5318L26.5247 16.5286C26.3567 16.4322 26.1886 16.3361 26.0202 16.2404L26.0085 16.2337L25.877 16.1593L25.8746 16.1579L25.7834 16.1069L25.7654 16.0968C25.7434 16.0846 25.7213 16.0725 25.6991 16.0607C25.4069 15.909 25.1089 15.769 24.8057 15.6409C24.0829 15.3357 23.1093 15.0681 22.5609 14.939V15.9488L23.9438 20.2224L23.9453 20.226C24.0881 20.362 24.2109 20.5184 24.3093 20.6907V20.6909C24.3416 20.7473 24.3711 20.8056 24.3978 20.8652C24.3985 20.8666 24.3992 20.8678 24.3995 20.8689C24.4262 20.9284 24.4497 20.9894 24.4704 21.0517L24.4721 21.0559C24.4926 21.1182 24.5102 21.1817 24.5246 21.2464L24.526 21.2514C24.5404 21.3167 24.5517 21.3834 24.5597 21.451C24.5597 21.452 24.5601 21.453 24.5602 21.4538C24.5681 21.5223 24.5727 21.592 24.5737 21.6626L24.5789 21.674H26.2722C26.3858 21.0526 26.4675 20.4257 26.5169 19.796C26.5181 19.7787 26.5201 19.7614 26.5215 19.7441Z" fill="#E3DDDB"/>
<path d="M28.7361 18.233C28.7349 18.235 28.734 18.2373 28.7329 18.2393L28.7361 18.2332" fill="#FCB03F"/>
<path d="M21.1658 20.2155C21.2568 20.1303 21.3553 20.0534 21.4602 19.9859C21.5646 19.9189 21.6749 19.8616 21.7898 19.8149C21.7928 19.8136 21.796 19.8128 21.7988 19.8114C21.914 19.7651 22.0331 19.7296 22.1548 19.7053L22.1679 19.7032C22.2937 19.6788 22.4215 19.6664 22.5497 19.6661C22.6827 19.6661 22.8124 19.6796 22.9382 19.7043C22.9414 19.7049 22.9444 19.7051 22.9476 19.7056C23.0736 19.7309 23.197 19.7682 23.3159 19.8171C23.5492 19.9133 23.7626 20.0519 23.9453 20.226L23.9438 20.2224L22.5609 15.9488L21.1658 20.2155Z" fill="#909393"/>
<path d="M20.6744 22.4564C20.626 22.3385 20.589 22.2162 20.5639 22.0912C20.5633 22.0886 20.5631 22.0857 20.5627 22.0832C20.5234 21.8848 20.5141 21.6816 20.5352 21.4805C20.5369 21.4642 20.5404 21.4486 20.5424 21.4323C20.5493 21.3792 20.5567 21.3263 20.5674 21.2746C20.5706 21.2596 20.5755 21.2452 20.5787 21.2301C20.5911 21.1778 20.6042 21.1256 20.6204 21.0747C20.6239 21.0641 20.6283 21.054 20.6319 21.0433C20.6504 20.9889 20.6702 20.9348 20.6933 20.8825C20.6958 20.8765 20.6991 20.8708 20.7018 20.8647C20.727 20.8083 20.7544 20.7529 20.7846 20.6996L20.7883 20.6934C20.8874 20.5199 21.0113 20.3618 21.156 20.2241L15.287 21.674H15.2758L21.0888 23.0928C20.9131 22.9099 20.7732 22.6957 20.6763 22.4613C20.6755 22.4598 20.6751 22.4581 20.6744 22.4564Z" fill="#676A6A"/>
<path d="M33.8798 21.3569C33.8835 21.3307 33.889 21.3061 33.8936 21.2806C33.9082 21.1971 33.9257 21.1158 33.9482 21.0386C33.9507 21.0298 33.9517 21.0199 33.9544 21.0114L34.7202 17.5049L34.72 15.5055C34.0943 14.9887 33.4243 14.7062 32.7267 14.7062C31.8452 14.7062 31.0233 15.1929 30.4087 15.7941C29.7362 16.452 29.2165 17.2798 28.7962 18.1151C28.7769 18.1535 28.7571 18.1905 28.7379 18.2291C28.8675 18.3413 28.9956 18.455 29.1221 18.5708C29.4079 18.8332 29.6888 19.1009 29.9646 19.3738C30.0933 19.5008 30.2196 19.6305 30.3462 19.7597C30.4806 19.8966 30.6152 20.0331 30.7475 20.1722C30.9896 20.4264 31.2282 20.6839 31.4634 20.9445C31.6652 21.1671 31.8648 21.3917 32.0622 21.6182L32.0626 21.6186C32.0956 21.6532 32.1188 21.678 32.1277 21.6881H33.8548C33.8548 21.6742 33.8576 21.6614 33.8578 21.6475C33.8595 21.5477 33.8664 21.4503 33.8798 21.3569ZM28.7378 18.2384L28.7359 18.2332L28.7329 18.2389L28.7405 18.2463C28.7396 18.2436 28.7388 18.241 28.7378 18.2384Z" fill="#E3DDDB"/>
<path d="M7.89033 23.8806L7.90578 23.842C8.13768 23.2403 8.40511 22.6529 8.70666 22.0829C8.75335 21.9942 8.79904 21.9051 8.84742 21.8173C8.87412 21.7688 8.90436 21.7224 8.93157 21.674C9.05419 21.4573 9.17764 21.2412 9.31034 21.0307C9.34175 20.9805 9.37467 20.9318 9.40675 20.8822C9.57033 20.6281 9.74151 20.3789 9.92007 20.1351C9.93552 20.1139 9.95013 20.0918 9.96575 20.0706C10.154 19.819 10.3502 19.5735 10.554 19.3344C10.5973 19.2833 10.6403 19.2319 10.6843 19.1812C10.8863 18.9495 11.0956 18.7244 11.312 18.5061C11.3547 18.4635 11.3982 18.4218 11.4412 18.3798C11.6701 18.1531 11.9072 17.9348 12.1519 17.7252L12.1534 17.7237C13.1194 14.488 16.2385 12.4996 19.7358 12.4996C21.1434 12.4996 22.5433 12.9052 23.7429 13.6391C24.9734 14.3917 25.8124 15.1271 26.4638 16.4126L26.4736 16.4319C26.49 16.4645 26.5085 16.4957 26.5246 16.5286L26.5263 16.5318L26.5302 16.5343C27.0772 16.8728 27.5983 17.2515 28.0891 17.6673C28.2542 17.8066 28.4162 17.9497 28.5748 18.0963C28.6273 18.1443 28.6812 18.19 28.7329 18.2389C28.7339 18.2369 28.7348 18.2349 28.7359 18.233C28.7364 18.2316 28.7371 18.2303 28.7378 18.229C28.7556 18.1925 28.7731 18.1554 28.791 18.1195C29.2838 15.0092 30.8496 13.3132 32.4679 13.3132C33.6877 13.3132 34.5744 14.0405 35.244 15.9984L35.2509 16.0193L35.2526 16.0217C35.4501 16.2371 35.6344 16.4642 35.8047 16.7016L35.8044 16.7015C35.8079 16.7062 35.8116 16.7105 35.8151 16.7154L35.815 16.7152L35.8151 16.7154C35.8247 16.7438 35.8329 16.773 35.8422 16.8014V16.8012L35.817 16.6993C33.8039 10.7394 28.1669 6.44849 21.5274 6.44849C13.1995 6.44849 6.44849 13.1995 6.44849 21.5274C6.44849 23.1691 6.71085 24.7497 7.19796 26.2204L7.19998 26.2119C7.37124 25.4186 7.602 24.6393 7.89033 23.8806Z" fill="#525353"/>
<path d="M36.0423 21.694L35.5164 22.2824V22.2822L35.5152 22.2861C35.4952 22.3635 35.4707 22.4358 35.4436 22.5055C35.4366 22.5238 35.4287 22.5411 35.421 22.5589C35.4008 22.6069 35.3782 22.6538 35.3533 22.6995C35.3403 22.7233 35.3276 22.7475 35.3136 22.7698C35.2918 22.8048 35.2683 22.8365 35.2444 22.8678C35.2115 22.9109 35.1751 22.9513 35.1356 22.9885C35.12 23.0032 35.1048 23.0191 35.0884 23.0322C35.049 23.0635 35.0063 23.0905 34.9611 23.1127C34.8856 23.1495 34.8065 23.171 34.7242 23.171C34.2464 23.171 33.8589 22.5071 33.8589 21.6881H32.1226L32.1236 21.6895C32.4498 22.0665 32.7708 22.4479 33.0867 22.8337C33.3902 23.2046 33.69 23.5786 33.986 23.9555L34.0297 24.0108C34.3102 24.3688 34.5881 24.7289 34.8635 25.0908L34.9438 25.1957C35.2363 25.5807 35.5269 25.9672 35.8157 26.3551C36.3238 24.8509 36.5907 23.2758 36.6065 21.6881L36.1184 21.6696L36.0423 21.694Z" fill="white"/>
<path d="M19.2366 14.73C19.2759 14.727 19.3152 14.7246 19.3543 14.722C19.6248 14.7028 19.8959 14.6928 20.1671 14.6921C20.9848 14.6921 21.7836 14.7796 22.5607 14.939H22.5608C23.1093 15.0681 24.0828 15.3357 24.8056 15.6409C25.1088 15.769 25.4068 15.909 25.699 16.0607L25.7653 16.0968L25.7833 16.1069C25.8104 16.122 25.8399 16.1383 25.8745 16.1579L25.8769 16.1593L26.0084 16.2337L26.0202 16.2404C26.2059 16.3457 26.4115 16.4638 26.4901 16.5088L26.5103 16.5204L26.5246 16.5286C26.5084 16.4957 26.49 16.4645 26.4735 16.4319L26.4638 16.4126C25.8124 15.1271 24.8096 14.0246 23.5791 13.2719C22.3794 12.538 20.9796 12.1324 19.5718 12.1324C16.0747 12.1324 13.1193 14.488 12.1533 17.7237C13.0679 16.9428 14.0853 16.2842 15.1803 15.7842C16.4572 15.2013 17.8362 14.8363 19.2366 14.73Z" fill="black"/>
<path d="M35.8151 16.7154L35.8149 16.7152L35.8151 16.7154C35.8116 16.7105 35.8079 16.7062 35.8043 16.7015L35.8047 16.7016C35.6344 16.4642 35.45 16.2371 35.2526 16.0217L35.2477 16.0158C35.1636 15.9245 35.0767 15.8357 34.9872 15.7496C34.9541 15.7178 34.9198 15.6901 34.8864 15.6597C34.8311 15.6095 34.7762 15.5576 34.7201 15.5116V17.5119L35.4859 21.0188V21.0186C35.4943 21.0458 35.5043 21.0713 35.5117 21.0996L36.0422 21.694L36.0474 21.6881H36.6025C36.6032 21.6367 36.6064 21.586 36.6064 21.5344V21.5336C36.6061 19.9254 36.3481 18.3277 35.8421 16.8012V16.8014C35.8329 16.773 35.8247 16.7438 35.8151 16.7154Z" fill="#BBBCBD"/>
<path d="M30.4087 15.7941C31.0233 15.1929 31.8451 14.7062 32.7266 14.7062C33.4242 14.7062 34.0942 14.9887 34.7199 15.5055L34.7201 15.5116V15.5126V15.5116C34.7762 15.5576 34.8311 15.6095 34.8864 15.6597C34.9198 15.6901 34.9541 15.7178 34.9872 15.7496C35.0767 15.8357 35.1636 15.9245 35.2477 16.0158L35.2526 16.0217C35.2521 16.021 35.2516 16.0203 35.251 16.0197L35.2509 16.0195L35.244 15.9984C34.5743 14.0405 33.4938 12.7685 32.2743 12.7685C30.6559 12.7685 29.2838 15.0092 28.791 18.1195L28.7962 18.1151C29.2164 17.2798 29.7361 16.452 30.4087 15.7941ZM28.2219 34.91C28.2219 34.91 28.004 34.7373 27.7274 34.419C27.5987 34.2718 27.4787 34.1172 27.3681 33.9559C27.3328 33.9045 27.2979 33.8511 27.2631 33.796C27.1585 33.6305 27.075 33.4292 26.9829 33.2301C26.8765 32.9997 26.8761 32.8463 26.815 32.6316C26.77 32.4736 26.7343 32.313 26.708 32.1507C26.6655 31.8883 26.6485 31.6223 26.6571 31.3566C26.6618 31.2032 26.6776 31.0445 26.7006 30.8829C26.7234 30.7224 26.7547 30.5633 26.7942 30.4061C26.9161 29.9184 27.1269 29.3991 27.4558 28.8508L27.5394 28.663C27.6469 28.484 27.6708 28.4919 27.7729 28.3194C29.2114 25.8917 29.9874 24.056 29.6078 21.2294C29.5662 20.9398 29.5189 20.6511 29.466 20.3634C29.433 20.5719 29.398 20.7801 29.361 20.988C29.3468 21.0525 29.3076 21.1226 29.2929 21.1664C28.668 23.0158 27.6844 24.3761 26.2691 25.9122C26.072 26.1253 25.8726 26.3361 25.6708 26.5446C25.3103 26.9173 24.9461 27.2863 24.5781 27.6515C24.425 27.8039 24.2687 27.9584 24.1098 28.116C23.9639 28.2604 23.7823 28.5693 23.5656 28.7969C23.4319 29.1713 23.2799 29.5936 23.1514 30.0377C23.0935 30.0157 23.0382 29.996 22.9792 29.9732C20.2299 28.9098 18.3892 27.4889 18.3892 27.4889C18.3892 27.4889 19.8055 29.3331 22.1916 31.0642C22.411 31.2231 22.6386 31.3705 22.8734 31.5056C22.775 33.0637 23.4623 34.5594 26.5649 35.0055C27.0894 35.081 27.6266 35.0774 28.1676 35.0165C28.1623 35.0003 28.1979 35.0007 28.195 34.9918C28.192 34.9827 28.2239 34.9588 28.2239 34.9588" fill="black"/>
<path d="M26.5625 30.8994C29.3168 31.3438 33.3932 31.2709 37.625 29.2896C37.727 29.2419 37.8394 29.3675 37.9413 29.3174C37.9413 29.3174 35.0491 32.2715 31.595 33.9416C31.494 33.9903 31.3944 34.0422 31.2925 34.0886C30.9587 34.2411 30.6192 34.374 30.2784 34.4966C29.6101 34.7368 28.9328 34.919 28.2605 35.0032C28.2296 35.0072 28.1986 35.0131 28.1677 35.0165C28.1635 35.0038 28.1593 34.9911 28.1551 34.9783L28.1506 34.9644C28.1506 34.9644 27.9326 34.7915 27.6559 34.4732C27.5271 34.3262 27.4072 34.1715 27.2968 34.0102C27.1427 33.7862 27.0077 33.5497 26.8935 33.303C26.797 33.0947 26.7169 32.8792 26.6538 32.6585C26.5353 32.2443 26.482 31.8141 26.4958 31.3835C26.5016 31.2249 26.5161 31.0668 26.5393 30.9098L26.5625 30.8994Z" fill="#9F2254"/>
<path d="M24.5883 27.7635C24.9563 27.3983 25.3206 27.0293 25.6811 26.6566C25.8828 26.448 26.0823 26.2372 26.2794 26.0242C27.6945 24.4882 28.7334 23.0507 29.3584 21.2013C29.373 21.1575 29.3878 21.0997 29.4021 21.0347L29.4088 21.0047C29.4234 20.9356 29.4377 20.8589 29.452 20.7724C29.4577 20.7127 29.6446 20.5925 29.6498 20.5365C29.4931 19.7313 29.132 18.8847 28.7378 18.2384C28.7387 18.241 28.7396 18.2436 28.7405 18.2463L28.7329 18.2389C28.6812 18.19 28.6272 18.1443 28.5748 18.0963C28.4161 17.9497 28.2542 17.8066 28.0891 17.6673C27.5982 17.2515 27.0771 16.8728 26.5302 16.5343C26.5577 16.9868 26.5753 17.4388 26.58 17.8903C26.5807 17.9411 26.5794 17.9916 26.5794 18.0422C26.5802 18.2174 26.5807 18.3927 26.5774 18.5679C26.573 18.7936 26.5651 19.0192 26.5535 19.2447C26.5449 19.4113 26.5344 19.5776 26.5214 19.744C26.5201 19.7613 26.5181 19.7786 26.5169 19.796C26.4674 20.4257 26.3858 21.0526 26.2722 21.674L26.0733 22.6145C25.6579 24.2985 24.8142 25.826 24.1205 27.4033C23.9365 27.8215 23.762 28.2444 23.609 28.6753L23.5657 28.7969C23.7478 28.6047 23.9326 28.415 24.12 28.228C24.279 28.0706 24.4352 27.9159 24.5883 27.7635Z" fill="#FCB03F"/>
<path d="M15.4864 36.8209C16.4957 36.3745 17.4298 36.0941 18.54 35.8753C18.5345 35.6349 18.522 35.3947 18.5024 35.155C18.9767 33.9272 19.4141 32.6855 19.8139 31.4315C19.1066 31.5004 18.4037 31.609 17.7086 31.7568C17.1934 31.8662 16.6852 32.0036 16.1811 32.1554C15.7761 32.2774 15.3765 32.4175 14.9801 32.5665L16.5474 32.9461L15.2863 36.9044L15.4864 36.8209Z" fill="#525353"/>
<path d="M34.8634 25.0908C34.588 24.7289 34.3101 24.3688 34.0296 24.0108L33.9859 23.9555C33.6863 23.5739 33.3827 23.1953 33.0754 22.8199C32.7631 22.4388 32.4458 22.062 32.1235 21.6895C32.1031 21.6658 32.0828 21.6418 32.0622 21.6182C31.7965 21.3132 31.5269 21.0116 31.2532 20.7137C31.0863 20.5316 30.9177 20.3511 30.7475 20.1722C30.6148 20.0337 30.481 19.8961 30.3462 19.7597C30.2195 19.6305 30.0932 19.5008 29.9646 19.3738C29.6887 19.101 29.4078 18.8333 29.122 18.5708C28.9954 18.4552 28.8673 18.3412 28.7377 18.229C28.737 18.2303 28.7364 18.2316 28.7359 18.233C29.0083 19.0161 29.3192 19.8089 29.4749 20.6255C29.5154 20.838 29.5488 21.0446 29.5761 21.2465C29.9557 24.0729 29.05 25.9184 27.6117 28.3461C27.5064 28.5235 27.4006 28.7006 27.2944 28.8775C26.9655 29.4261 26.7549 29.9453 26.6327 30.4329C26.5933 30.5901 26.5621 30.7493 26.5392 30.9098C29.3599 31.365 33.6014 31.4498 37.9412 29.3174C37.9412 29.3174 37.0901 28.0666 35.8095 26.3471C35.5228 25.9619 35.2342 25.578 34.9437 25.1956C34.9171 25.1605 34.8901 25.1256 34.8634 25.0908Z" fill="#DF0067"/>
<path d="M15.1365 37.6119L16.5474 32.9461L14.9801 32.5665C14.6291 32.6983 14.2812 32.8389 13.9379 32.9918L12.5405 37.6119L14.1005 37.6363L15.1365 37.6119Z" fill="#AA9678"/>
<path d="M16.1283 35.5932C16.2661 35.6462 16.4062 35.6939 16.5459 35.7427C18.1467 36.3045 19.831 36.5911 21.5275 36.5905C23.4574 36.5916 25.3694 36.221 27.1592 35.499C27.2512 35.4621 27.3414 35.4214 27.4325 35.3826C27.5801 35.3199 27.7268 35.2549 27.8724 35.1876C28.0024 35.1271 28.1324 35.0672 28.2604 35.0032C28.2295 35.0072 28.1986 35.0131 28.1677 35.0164C27.6266 35.0774 27.0895 35.0809 26.5649 35.0055C23.4624 34.5594 22.775 33.0636 22.8735 31.5056C22.6386 31.3705 22.411 31.2231 22.1917 31.0641C19.8055 29.3331 18.3892 27.4889 18.3892 27.4889C18.3892 27.4889 20.23 28.9098 22.9793 29.9732C23.0382 29.996 23.0935 30.0157 23.1514 30.0377C23.2799 29.5936 23.432 29.1713 23.5657 28.7969L23.609 28.6753C23.762 28.2444 23.9365 27.8215 24.1205 27.4033C24.8142 25.826 25.6579 24.2985 26.0733 22.6145L26.2721 21.674H24.5753L24.5751 21.6742L24.5753 21.6775L24.5746 21.6779C24.5746 21.6824 24.5753 21.6869 24.5753 21.6918C24.5757 22.0954 24.4552 22.4899 24.2293 22.8244C24.0091 23.1498 23.6996 23.4045 23.3381 23.5581C23.0231 23.6914 22.6794 23.7425 22.3393 23.7064C22.323 23.7048 22.3074 23.7012 22.2913 23.6992C22.2382 23.6923 22.1855 23.6851 22.1342 23.6745C22.1198 23.6713 22.106 23.6668 22.0917 23.6634C22.039 23.6513 21.9862 23.6382 21.9352 23.6219C21.9258 23.6188 21.9167 23.6149 21.9073 23.6117C21.852 23.5931 21.7971 23.5731 21.744 23.5499C21.7392 23.5479 21.7346 23.5454 21.7299 23.5432C21.6727 23.5179 21.6166 23.49 21.562 23.4595L21.5594 23.458C21.3856 23.3599 21.227 23.2369 21.0888 23.0928L15.2757 21.674H8.93154C8.90433 21.7224 8.8741 21.7687 8.84739 21.8173C8.79901 21.9051 8.75333 21.9943 8.70663 22.0828C8.55073 22.3773 8.40396 22.6766 8.26655 22.9801C8.13807 23.2639 8.01776 23.5513 7.90576 23.842L7.8903 23.8806C7.60198 24.6393 7.37121 25.4185 7.19995 26.2119C8.19869 29.2581 10.1419 31.8758 12.6821 33.7207C12.756 33.7743 12.834 33.822 12.9089 33.8744C13.3387 34.1762 13.7841 34.4554 14.2431 34.7107C14.8502 35.0484 15.4801 35.3433 16.1283 35.5932Z" fill="white"/>
<path d="M31.3396 39.1996C31.299 38.7963 31.2779 38.3914 31.2765 37.9861C31.2765 37.8682 31.2296 37.755 31.1462 37.6716C31.0628 37.5881 30.9497 37.5412 30.8317 37.5412H12.1684C12.0504 37.5412 11.9372 37.5881 11.8538 37.6716C11.7704 37.755 11.7235 37.8682 11.7234 37.9861C11.7234 38.3946 11.6994 38.7988 11.6603 39.1996C11.6168 39.64 11.5495 40.0778 11.4589 40.5111C11.7295 40.6542 12.0022 40.7934 12.2797 40.9254C12.4653 40.1157 12.5739 39.2902 12.6042 38.46C12.6047 38.4504 12.6058 38.4407 12.6061 38.4311H30.394C30.3943 38.4407 30.3953 38.4504 30.3957 38.46C30.4261 39.2902 30.5348 40.1157 30.7203 40.9254C30.9969 40.7931 31.2705 40.655 31.5412 40.5111C31.4506 40.0778 31.3833 39.64 31.3396 39.1996Z" fill="#8B7460"/>
</g>
<defs>
<clipPath id="clip0_33_420">
<rect width="43" height="43" fill="white"/>
</clipPath>
</defs>
</svg>
