<svg width="38" height="43" viewBox="0 0 38 43" fill="none" xmlns="http://www.w3.org/2000/svg">
<path d="M19.1487 19.1512C17.2237 19.1512 16.1203 21.0412 16.1203 23.3783C16.1046 25.7467 17.2471 27.5661 19.133 27.5661C21.0346 27.5661 22.1458 25.7702 22.1458 23.3234C22.1458 21.0412 21.0659 19.1512 19.1487 19.1512Z" fill="white"/>
<path d="M35.5898 15.379H34.5568V10.3991C34.5568 10.3677 34.549 10.3363 34.549 10.3049C34.549 10.1089 34.4864 9.91282 34.3456 9.75597L26.082 0.29017C26.082 0.29017 26.0741 0.29017 26.0741 0.282327C26.0272 0.22743 25.9646 0.180376 25.9098 0.141164C25.8942 0.125479 25.8707 0.117636 25.855 0.109794C25.8002 0.0784242 25.7455 0.054897 25.6907 0.0392121C25.675 0.0313697 25.6594 0.0313697 25.6437 0.0235273C25.5811 0.00784242 25.5107 0 25.4481 0H5.11779C4.18657 0 3.43534 0.752873 3.43534 1.68612V15.379H2.40239C1.07208 15.379 0 16.4612 0 17.7866V30.3188C0 31.652 1.0799 32.7264 2.40239 32.7264H3.43534V41.306C3.43534 42.2393 4.18657 42.9922 5.11779 42.9922H32.8822C33.8134 42.9922 34.5647 42.2393 34.5647 41.306V32.7343H35.5976C36.9279 32.7343 38 31.652 38 30.3266V17.7866C38 16.4612 36.9201 15.379 35.5898 15.379ZM5.11779 1.68612H24.6108V10.3128C24.6108 10.7755 24.9864 11.1598 25.4559 11.1598H32.89V15.3868H5.11779V1.68612ZM25.1742 29.5659L24.3604 31.754C22.584 31.2364 21.105 30.6952 19.446 29.9973C19.1722 29.8875 18.8748 29.8326 18.5774 29.809C15.7681 29.6208 13.1466 27.5504 13.1466 23.4724C13.1466 19.7315 15.5099 16.9161 19.2269 16.9161C23.0379 16.9161 25.1273 19.81 25.1273 23.2136C25.1273 26.0447 23.8126 28.0445 22.1693 28.7895V28.8601C23.124 29.1346 24.196 29.362 25.1742 29.5659ZM3.25535 29.0248L3.82661 26.6878C4.58567 27.0799 5.75165 27.4642 6.94893 27.4642C8.24012 27.4642 8.92875 26.9309 8.92875 26.1153C8.92875 25.3389 8.33402 24.8918 6.83937 24.3586C4.76565 23.6371 3.41969 22.4842 3.41969 20.6726C3.41969 18.5395 5.19605 16.9161 8.13056 16.9161C9.53913 16.9161 10.5721 17.2141 11.3077 17.5435L10.6816 19.8256C10.1808 19.5825 9.29654 19.2296 8.07578 19.2296C6.85502 19.2296 6.2603 19.7864 6.2603 20.4374C6.2603 21.2294 6.96458 21.5823 8.56878 22.1941C10.7677 23.0097 11.8007 24.1547 11.8007 25.9192C11.8007 28.0131 10.1886 29.7934 6.76895 29.7934C5.36038 29.7855 3.95181 29.4169 3.25535 29.0248ZM32.8822 40.859H5.11779V32.7343H32.8822V40.859ZM34.7446 29.5973H26.9584V17.1122H29.7912V27.2289H34.7446V29.5973Z" fill="white"/>
</svg>
