<svg width="94" height="15" viewBox="0 0 94 15" fill="none" xmlns="http://www.w3.org/2000/svg">
<path d="M89 5H84V3.75H89V5ZM89.4375 2.5H88.375V1.25H84.625V2.5H83.5625C83.125 2.5 82.75 2.875 82.75 3.3125V12.875C82.75 13.375 83.125 13.75 83.5625 13.75H89.375C89.8125 13.75 90.1875 13.375 90.1875 12.9375V3.3125C90.25 2.875 89.875 2.5 89.4375 2.5Z" fill="white"/>
<path d="M64.625 13.125H77.125V0.625L64.625 13.125ZM75.875 3.625V11.875H74V5.5" fill="white"/>
<path d="M43.8917 13.5417L32.4 1.99167L31.6417 2.75L34.3833 5.49167C34.0917 6.075 33.9167 6.775 33.9167 7.41667V10.9167L32.75 12.0833V12.6667H41.5583L43.1333 14.2417L43.8917 13.5417ZM35.0833 11.5V7.41667C35.0833 7.06667 35.1417 6.71667 35.2583 6.36667L40.3917 11.5H35.0833ZM36.8333 13.25H39.1667C39.1667 13.8917 38.6417 14.4167 38 14.4167C37.3583 14.4167 36.8333 13.8917 36.8333 13.25ZM35.8417 3.975C36.1333 3.8 36.4833 3.625 36.8333 3.50834C36.8333 3.45 36.8333 3.39167 36.8333 3.33334C36.8333 2.69167 37.3583 2.16667 38 2.16667C38.6417 2.16667 39.1667 2.69167 39.1667 3.33334C39.1667 3.39167 39.1667 3.45 39.1667 3.50834C40.9167 4.03334 42.0833 5.60834 42.0833 7.41667V10.2167L40.9167 9.05V7.41667C40.9167 5.78334 39.6333 4.5 38 4.5C37.5333 4.5 37.0667 4.61667 36.7167 4.85L35.8417 3.975Z" fill="white"/>
<path d="M55.5 1.875C52.875 1.875 50.3125 2.75 48.25 4.375C50.75 7.5625 52.9375 10.25 55.5 13.4375C58.0625 10.25 60.625 7 62.75 4.375C60.6875 2.75 58.125 1.875 55.5 1.875ZM55.5 3.125C57.4375 3.125 59.3125 3.6875 60.9375 4.625L59.75 6.125C58.8125 5.625 57.3125 5 55.5 5C53.625 5 52.1875 5.625 51.25 6.125L50.0625 4.625C51.6875 3.625 53.5625 3.125 55.5 3.125Z" fill="white"/>
<path d="M24.3125 10.1875L23.125 11.375V9L24.3125 10.1875ZM23.125 3.625L24.3125 4.8125L23.125 6V3.625ZM26.0625 4.8125L22.5 1.25H21.875V6L19 3.125L18.125 4L21.625 7.5L18.125 11L19 11.875L21.875 9V13.75H22.5L26.0625 10.1875L23.375 7.5L26.0625 4.8125Z" fill="white"/>
<path d="M7 12.6667C4.725 12.6667 2.91667 10.8583 2.91667 8.58332C2.91667 6.30832 4.725 4.49999 7 4.49999C9.275 4.49999 11.0833 6.30832 11.0833 8.58332C11.0833 10.8583 9.275 12.6667 7 12.6667ZM7 3.33332C4.08333 3.33332 1.75 5.66665 1.75 8.58332C1.75 11.5 4.08333 13.8333 7 13.8333C9.91667 13.8333 12.25 11.5 12.25 8.58332C12.25 5.66665 9.91667 3.33332 7 3.33332ZM7.29167 5.66665H6.41667V9.16665L9.21667 10.8583L9.68333 10.1583L7.35 8.75832V5.66665H7.29167ZM4.60833 2.98332L3.85 2.10832L1.16667 4.32499L1.925 5.19999L4.60833 2.98332ZM12.8333 4.32499L10.15 2.04999L9.39167 2.92499L12.075 5.19999L12.8333 4.32499Z" fill="white"/>
</svg>
