<svg width="55" height="55" viewBox="0 0 55 55" fill="none" xmlns="http://www.w3.org/2000/svg">
<g clip-path="url(#clip0_64_268)">
<path d="M1.15455 35.4101C4.55204 46.7429 15.0618 55 27.5003 55C42.6878 55 55.0002 42.6876 55.0002 27.5C55.0002 12.3122 42.6878 0 27.5003 0C12.9262 0 1.00112 11.3373 0.0592728 25.673C1.83889 28.6614 2.53333 30.5097 1.15481 35.4101H1.15455Z" fill="url(#paint0_linear_64_268)"/>
<path d="M26.0837 20.6125C26.0837 20.6588 26.0837 20.705 26.0861 20.7485L19.3567 30.5238C18.2666 30.4742 17.1727 30.6654 16.1355 31.0927C15.6783 31.2792 15.2499 31.5082 14.8479 31.7725L0.0712866 25.6895C0.0714022 25.6895 -0.270634 31.3146 1.15429 35.5069L11.6005 39.8172C12.125 42.1612 13.733 44.2172 16.1053 45.2062C19.9867 46.8279 24.462 44.9796 26.0766 41.0966C26.4968 40.0815 26.6927 39.017 26.6644 37.9547L36.2929 31.0738C36.3708 31.0762 36.4511 31.0785 36.529 31.0785C42.291 31.0785 46.9743 26.3811 46.9743 20.6125C46.9743 14.8434 42.291 10.1502 36.529 10.1502C30.7693 10.1502 26.0837 14.8434 26.0837 20.6125ZM24.4691 40.4215C23.2194 43.4217 19.7717 44.8451 16.7748 43.5964C15.3922 43.0204 14.3484 41.9652 13.7462 40.7071L17.1465 42.1163C19.3567 43.0369 21.8924 41.9888 22.8111 39.7794C23.7326 37.5676 22.6871 35.0277 20.4782 34.1071L16.9631 32.6506C18.3195 32.1361 19.8614 32.1172 21.302 32.7167C22.7544 33.321 23.8813 34.4588 24.4785 35.9129C25.0758 37.367 25.0734 38.9721 24.4691 40.4215ZM36.529 27.585C32.6931 27.585 29.5702 24.4573 29.5702 20.6125C29.5702 16.7708 32.6931 13.6421 36.529 13.6421C40.3672 13.6421 43.4901 16.7708 43.4901 20.6125C43.4901 24.4573 40.3672 27.585 36.529 27.585ZM31.3146 20.6019C31.3146 17.7095 33.6562 15.3636 36.5408 15.3636C39.4277 15.3636 41.7693 17.7095 41.7693 20.6019C41.7693 23.4944 39.4277 25.8382 36.5408 25.8382C33.6562 25.8382 31.3146 23.4944 31.3146 20.6019Z" fill="white"/>
</g>
<defs>
<linearGradient id="paint0_linear_64_268" x1="27.5298" y1="0" x2="27.5298" y2="55" gradientUnits="userSpaceOnUse">
<stop stop-color="#111D2E"/>
<stop offset="0.21248" stop-color="#051839"/>
<stop offset="0.40695" stop-color="#0A1B48"/>
<stop offset="0.5811" stop-color="#132E62"/>
<stop offset="0.7376" stop-color="#144B7E"/>
<stop offset="0.87279" stop-color="#136497"/>
<stop offset="1" stop-color="#1387B8"/>
</linearGradient>
<clipPath id="clip0_64_268">
<rect width="55" height="55" fill="white"/>
</clipPath>
</defs>
</svg>
