<?xml version="1.0" encoding="utf-8"?>
<!-- Generator: Adobe Illustrator 23.0.2, SVG Export Plug-In . SVG Version: 6.00 Build 0)  -->
<svg version="1.1" id="Calque_1" xmlns="http://www.w3.org/2000/svg" xmlns:xlink="http://www.w3.org/1999/xlink" x="0px" y="0px"
	 viewBox="0 0 24 24" style="enable-background:new 0 0 24 24;" xml:space="preserve">
<style type="text/css">
	.st0{fill:#FFFFFF;}
</style>
<path class="st0" d="M11.6,2.6l-9,9C2.2,12,2,12.5,2,13v7c0,1.1,0.9,2,2,2h7c0.5,0,1-0.2,1.4-0.6l9-9C21.8,12,22,11.5,22,11
	c0-0.5-0.2-1-0.6-1.4l-7-7C14,2.2,13.5,2,13,2C12.5,2,12,2.2,11.6,2.6 M20,11l-9,9H4v-7l9-9 M5,17.5C5,16.7,5.7,16,6.5,16
	S8,16.7,8,17.5C8,18.3,7.3,19,6.5,19S5,18.3,5,17.5z"/>
</svg>
