<svg width="43" height="43" viewBox="0 0 43 43" fill="none" xmlns="http://www.w3.org/2000/svg">
<g clip-path="url(#clip0_31_339)">
<path d="M3.05383 21.5175C3.05383 28.8188 7.30118 35.1371 13.444 38.1208L4.66853 14.0057C3.61547 16.2873 3.05383 18.8147 3.05383 21.5175Z" fill="white"/>
<path d="M33.9437 20.5698C33.9437 18.2882 33.1364 16.7086 32.4343 15.48C31.4866 13.9706 30.609 12.6718 30.609 11.1625C30.609 9.47755 31.9078 7.89796 33.698 7.89796C33.7682 7.89796 33.8735 7.89796 33.9437 7.89796C30.6792 4.87919 26.2915 3.05388 21.5176 3.05388C15.0588 3.05388 9.40738 6.35347 6.10779 11.3731C6.52901 11.3731 6.95024 11.4082 7.30126 11.4082C9.23187 11.4082 12.2155 11.1625 12.2155 11.1625C13.1984 11.0922 13.3388 12.5665 12.3208 12.6718C12.3208 12.6718 11.338 12.7771 10.2147 12.8473L16.9192 32.8204L20.956 20.7102L18.0776 12.8473C17.0947 12.7771 16.147 12.6718 16.147 12.6718C15.1641 12.6016 15.2694 11.0922 16.2523 11.1625C16.2523 11.1625 19.3062 11.4082 21.0964 11.4082C23.027 11.4082 26.0106 11.1625 26.0106 11.1625C26.9935 11.0922 27.1339 12.5665 26.116 12.6718C26.116 12.6718 25.098 12.7771 24.0098 12.8473L30.6792 32.68L32.5045 26.5371C33.347 23.9747 33.9437 22.1494 33.9437 20.5698Z" fill="white"/>
<path d="M21.8335 23.1322L16.2874 39.209C17.9371 39.7004 19.6923 39.9461 21.4825 39.9461C23.6237 39.9461 25.6947 39.56 27.6253 38.8931C27.5902 38.8229 27.52 38.7176 27.4849 38.6473L21.8335 23.1322Z" fill="white"/>
<path d="M37.6997 12.6367C37.7699 13.2335 37.8401 13.8653 37.8401 14.5322C37.8401 16.3927 37.489 18.4988 36.436 21.1314L30.7845 37.4188C36.2605 34.2245 39.9462 28.2922 39.9462 21.4824C39.9462 18.2882 39.1388 15.2694 37.6997 12.6367Z" fill="white"/>
<path d="M21.5175 0C9.65306 0 0 9.65306 0 21.5175C0 33.382 9.65306 43.0351 21.5175 43.0351C33.382 43.0351 43.0351 33.382 43.0351 21.5175C43 9.65306 33.3469 0 21.5175 0ZM21.5175 42.0171C10.1796 42.0171 0.982857 32.8204 0.982857 21.5175C0.982857 10.1796 10.1796 0.982857 21.5175 0.982857C32.8204 0.982857 42.0522 10.1796 42.0522 21.5175C42.0171 32.8204 32.8204 42.0171 21.5175 42.0171Z" fill="white"/>
</g>
<defs>
<clipPath id="clip0_31_339">
<rect width="43" height="43" fill="white"/>
</clipPath>
</defs>
</svg>
