<svg width="44" height="43" viewBox="0 0 44 43" fill="none" xmlns="http://www.w3.org/2000/svg">
<path d="M7.79167 0H36.2083C40.5167 0 44 3.49145 44 7.80983V35.1902C44 39.5085 40.5167 43 36.2083 43H7.79167C3.48333 43 0 39.5085 0 35.1902V7.80983C0 3.49145 3.48333 0 7.79167 0Z" fill="#470137"/>
<path d="M23.1366 11.3013L17.6366 20.3974L23.5033 30.0449C23.54 30.1184 23.5583 30.1919 23.5399 30.2654C23.5216 30.3389 23.4483 30.2838 23.3383 30.3022H19.14C18.8466 30.3022 18.645 30.2838 18.5166 30.1C18.1316 29.3282 17.7283 28.5748 17.3433 27.803C16.9583 27.0496 16.5366 26.2778 16.0966 25.4876C15.6566 24.6974 15.2166 23.9073 14.7766 23.0987H14.74C14.355 23.8889 13.9333 24.6791 13.5116 25.4692C13.0899 26.2594 12.6683 27.0496 12.265 27.8214C11.8433 28.5932 11.4216 29.3833 10.9999 30.1368C10.9266 30.3205 10.78 30.3389 10.5783 30.3389H6.54495C6.47162 30.3389 6.41662 30.3757 6.41662 30.2838C6.39828 30.2103 6.41662 30.1368 6.45328 30.0816L12.155 20.7098L6.59995 11.2829C6.54495 11.2094 6.52662 11.1359 6.56328 11.0992C6.59995 11.044 6.67328 11.0257 6.74662 11.0257H10.9083C10.9999 11.0257 11.0916 11.044 11.165 11.0624C11.2383 11.0992 11.2933 11.1543 11.3483 11.2278C11.6966 12.018 12.1 12.8081 12.5216 13.5983C12.9616 14.3885 13.3833 15.1603 13.8416 15.9321C14.2816 16.7039 14.6849 17.4757 15.07 18.2658H15.1066C15.4916 17.4573 15.895 16.6671 16.2983 15.8953C16.7016 15.1235 17.1233 14.3517 17.5449 13.5799C17.9666 12.8081 18.37 12.018 18.7733 11.2645C18.7916 11.191 18.8283 11.1175 18.8833 11.0808C18.9566 11.044 19.03 11.0256 19.1216 11.044H22.99C23.0816 11.0256 23.1733 11.0808 23.1916 11.1727C23.21 11.191 23.1733 11.2645 23.1366 11.3013Z" fill="#FF61F6"/>
<path d="M31.6066 30.688C30.2499 30.7064 28.8933 30.4308 27.6649 29.8611C26.5099 29.3282 25.5566 28.4462 24.8966 27.362C24.2183 26.241 23.8883 24.8445 23.8883 23.1722C23.8699 21.8124 24.2183 20.4709 24.8966 19.2949C25.5933 18.1004 26.6016 17.1081 27.8116 16.4466C29.0949 15.7299 30.6349 15.3808 32.4499 15.3808C32.5416 15.3808 32.6699 15.3808 32.8349 15.3992C32.9999 15.4175 33.1833 15.4175 33.4033 15.4359V9.62907C33.4033 9.50043 33.4583 9.42693 33.5866 9.42693H37.3083C37.3999 9.40855 37.4733 9.48206 37.4916 9.55556C37.4916 9.57394 37.4916 9.59231 37.4916 9.59231V27.0863C37.4916 27.4171 37.5099 27.7846 37.5283 28.1889C37.5649 28.5748 37.5833 28.9423 37.6016 29.2547C37.6016 29.3833 37.5466 29.4936 37.4183 29.5487C36.4649 29.953 35.4566 30.247 34.4299 30.4308C33.4949 30.5962 32.5599 30.688 31.6066 30.688ZM33.4033 27.0128V18.9274C33.2383 18.8906 33.0733 18.8539 32.9083 18.8355C32.7066 18.8171 32.5049 18.7987 32.3033 18.7987C31.5883 18.7987 30.8733 18.9457 30.2316 19.2765C29.6083 19.5889 29.0766 20.0483 28.6733 20.6363C28.2699 21.2244 28.0683 22.0145 28.0683 22.9701C28.0499 23.6133 28.1599 24.2564 28.3799 24.8628C28.5633 25.359 28.8383 25.8 29.2049 26.1675C29.5533 26.4983 29.9749 26.7556 30.4516 26.9026C30.9466 27.068 31.4599 27.1415 31.9733 27.1415C32.2483 27.1415 32.5049 27.1231 32.7433 27.1047C32.9816 27.1231 33.1833 27.0863 33.4033 27.0128Z" fill="#FF61F6"/>
</svg>
